<mxfile host="app.diagrams.net" modified="2023-05-17T18:13:44.225Z" agent="Mozilla/5.0 (Windows NT 10.0; Win64; x64) AppleWebKit/537.36 (KHTML, like Gecko) Chrome/113.0.0.0 Safari/537.36" etag="I5aFdiWRUx2b8pfJsqsX" version="21.3.2" type="device">
  <diagram id="C5RBs43oDa-KdzZeNtuy" name="Page-1">
    <mxGraphModel dx="712" dy="774" grid="1" gridSize="10" guides="1" tooltips="1" connect="1" arrows="1" fold="1" page="1" pageScale="1" pageWidth="827" pageHeight="1169" math="0" shadow="0">
      <root>
        <mxCell id="WIyWlLk6GJQsqaUBKTNV-0" />
        <mxCell id="WIyWlLk6GJQsqaUBKTNV-1" parent="WIyWlLk6GJQsqaUBKTNV-0" />
        <mxCell id="YZgRuGpeGjwWdAe7pd5f-8" value="Main Window" style="swimlane;childLayout=stackLayout;horizontal=1;startSize=40;horizontalStack=0;rounded=1;fontSize=14;fontStyle=0;strokeWidth=2;resizeParent=0;resizeLast=1;shadow=0;dashed=0;align=center;arcSize=4;whiteSpace=wrap;html=1;" parent="WIyWlLk6GJQsqaUBKTNV-1" vertex="1">
          <mxGeometry x="40" y="200" width="160" height="120" as="geometry" />
        </mxCell>
        <mxCell id="YZgRuGpeGjwWdAe7pd5f-9" value="+ All the basic tools shown.&lt;br&gt;+ Display of figures.&lt;br&gt;+ Outline showcases.&lt;br&gt;+ Data Loader&amp;nbsp;" style="align=left;strokeColor=none;fillColor=none;spacingLeft=4;fontSize=12;verticalAlign=top;resizable=0;rotatable=0;part=1;html=1;" parent="YZgRuGpeGjwWdAe7pd5f-8" vertex="1">
          <mxGeometry y="40" width="160" height="80" as="geometry" />
        </mxCell>
        <mxCell id="YZgRuGpeGjwWdAe7pd5f-10" value="Figure-Application (basic structure)&lt;br&gt;- Dependencies: tkinter, python 3.10+, matplotlib, lmatools, chargepol, pandas.&lt;br&gt;- Used mainly to create LMA figures.&lt;br&gt;- Accept .csv and .dta files.&lt;br&gt;- It will also accept directories containing those files." style="rounded=0;whiteSpace=wrap;html=1;" parent="WIyWlLk6GJQsqaUBKTNV-1" vertex="1">
          <mxGeometry x="10" y="10" width="250" height="130" as="geometry" />
        </mxCell>
        <mxCell id="YZgRuGpeGjwWdAe7pd5f-11" value="" style="endArrow=classic;html=1;rounded=0;" parent="WIyWlLk6GJQsqaUBKTNV-1" edge="1">
          <mxGeometry width="50" height="50" relative="1" as="geometry">
            <mxPoint x="200" y="255" as="sourcePoint" />
            <mxPoint x="440" y="80" as="targetPoint" />
            <Array as="points">
              <mxPoint x="280" y="255" />
              <mxPoint x="280" y="80" />
            </Array>
          </mxGeometry>
        </mxCell>
        <mxCell id="YZgRuGpeGjwWdAe7pd5f-12" value="Basic tools" style="swimlane;whiteSpace=wrap;html=1;" parent="WIyWlLk6GJQsqaUBKTNV-1" vertex="1">
          <mxGeometry x="440" y="30" width="240" height="130" as="geometry" />
        </mxCell>
        <mxCell id="YZgRuGpeGjwWdAe7pd5f-15" value="+ File properties (Save, save as, etc).&lt;br&gt;+ Edit (Any editing basic tool)&lt;br&gt;+ View (In case we want to show&lt;br&gt;more layouts).&lt;br&gt;+ Save (More direct save file)&lt;br&gt;+ Window preferences." style="text;html=1;align=left;verticalAlign=middle;resizable=0;points=[];autosize=1;strokeColor=none;fillColor=none;" parent="YZgRuGpeGjwWdAe7pd5f-12" vertex="1">
          <mxGeometry y="20" width="220" height="100" as="geometry" />
        </mxCell>
        <mxCell id="YZgRuGpeGjwWdAe7pd5f-16" value="" style="endArrow=classic;html=1;rounded=0;exitX=0.999;exitY=0.382;exitDx=0;exitDy=0;exitPerimeter=0;" parent="WIyWlLk6GJQsqaUBKTNV-1" source="YZgRuGpeGjwWdAe7pd5f-9" target="YZgRuGpeGjwWdAe7pd5f-17" edge="1">
          <mxGeometry width="50" height="50" relative="1" as="geometry">
            <mxPoint x="260" y="330" as="sourcePoint" />
            <mxPoint x="430" y="270" as="targetPoint" />
          </mxGeometry>
        </mxCell>
        <mxCell id="YZgRuGpeGjwWdAe7pd5f-17" value="Display" style="swimlane;whiteSpace=wrap;html=1;" parent="WIyWlLk6GJQsqaUBKTNV-1" vertex="1">
          <mxGeometry x="440" y="170" width="240" height="200" as="geometry" />
        </mxCell>
        <mxCell id="YZgRuGpeGjwWdAe7pd5f-18" value="- Upper Tab: All basic tools showcased.&lt;br&gt;&lt;span style=&quot;white-space: pre;&quot;&gt; &lt;/span&gt;-&amp;gt; Upper-right tab: Uploading new&lt;br&gt;&lt;span style=&quot;white-space: pre;&quot;&gt; &lt;/span&gt;&amp;nbsp; &amp;nbsp; data files.&lt;br&gt;- Left section: figure previews of our data.&lt;br&gt;- Centre section: Main preview of our&lt;br&gt;figure.&lt;br&gt;- Down section: Layout basic outlines&lt;br&gt;for figure structure (XLMA-format, basic,&lt;br&gt;etc.)" style="text;html=1;align=left;verticalAlign=middle;resizable=0;points=[];autosize=1;strokeColor=none;fillColor=none;" parent="YZgRuGpeGjwWdAe7pd5f-17" vertex="1">
          <mxGeometry y="30" width="240" height="140" as="geometry" />
        </mxCell>
        <mxCell id="YZgRuGpeGjwWdAe7pd5f-19" value="" style="endArrow=classic;html=1;rounded=0;exitX=0.999;exitY=0.382;exitDx=0;exitDy=0;exitPerimeter=0;" parent="WIyWlLk6GJQsqaUBKTNV-1" target="YZgRuGpeGjwWdAe7pd5f-24" edge="1">
          <mxGeometry width="50" height="50" relative="1" as="geometry">
            <mxPoint x="200" y="291" as="sourcePoint" />
            <mxPoint x="370" y="440" as="targetPoint" />
            <Array as="points">
              <mxPoint x="320" y="291" />
              <mxPoint x="320" y="480" />
            </Array>
          </mxGeometry>
        </mxCell>
        <mxCell id="YZgRuGpeGjwWdAe7pd5f-24" value="Data Loader" style="swimlane;whiteSpace=wrap;html=1;" parent="WIyWlLk6GJQsqaUBKTNV-1" vertex="1">
          <mxGeometry x="440" y="380" width="240" height="200" as="geometry" />
        </mxCell>
        <mxCell id="YZgRuGpeGjwWdAe7pd5f-26" value="&lt;div style=&quot;text-align: left;&quot;&gt;&lt;span style=&quot;background-color: initial;&quot;&gt;- Found on upper right corner, or accessed&lt;/span&gt;&lt;/div&gt;&lt;div style=&quot;text-align: left;&quot;&gt;&lt;span style=&quot;background-color: initial;&quot;&gt;via the file operation.&lt;/span&gt;&lt;/div&gt;&lt;div style=&quot;text-align: left;&quot;&gt;- The user will give us a path to the directory&lt;span style=&quot;background-color: initial;&quot;&gt;&lt;br&gt;&lt;/span&gt;&lt;/div&gt;&lt;div style=&quot;text-align: left;&quot;&gt;&lt;span style=&quot;background-color: initial;&quot;&gt;- Allows the opening of data files and&lt;/span&gt;&lt;/div&gt;&lt;div style=&quot;text-align: left;&quot;&gt;&lt;span style=&quot;background-color: initial;&quot;&gt;directories&lt;/span&gt;&lt;/div&gt;&lt;div style=&quot;text-align: left;&quot;&gt;&lt;span style=&quot;background-color: initial;&quot;&gt;- Verifies that all the data is from an LMA.&lt;/span&gt;&lt;/div&gt;&lt;div style=&quot;text-align: left;&quot;&gt;- Using chargepol and other tools, we will&lt;/div&gt;&lt;div style=&quot;text-align: left;&quot;&gt;generate basic figures like hist and plots.&lt;/div&gt;" style="text;html=1;align=center;verticalAlign=middle;resizable=0;points=[];autosize=1;strokeColor=none;fillColor=none;" parent="YZgRuGpeGjwWdAe7pd5f-24" vertex="1">
          <mxGeometry x="-7.5" y="35" width="260" height="130" as="geometry" />
        </mxCell>
        <mxCell id="YZgRuGpeGjwWdAe7pd5f-25" value="" style="endArrow=classic;html=1;rounded=0;exitX=1.009;exitY=0.21;exitDx=0;exitDy=0;exitPerimeter=0;entryX=1.011;entryY=0.104;entryDx=0;entryDy=0;entryPerimeter=0;" parent="WIyWlLk6GJQsqaUBKTNV-1" source="YZgRuGpeGjwWdAe7pd5f-18" target="YZgRuGpeGjwWdAe7pd5f-24" edge="1">
          <mxGeometry width="50" height="50" relative="1" as="geometry">
            <mxPoint x="690" y="230" as="sourcePoint" />
            <mxPoint x="710" y="410" as="targetPoint" />
            <Array as="points">
              <mxPoint x="720" y="229" />
              <mxPoint x="720" y="400" />
            </Array>
          </mxGeometry>
        </mxCell>
        <mxCell id="YZgRuGpeGjwWdAe7pd5f-27" value="" style="endArrow=classic;html=1;rounded=0;entryX=-0.008;entryY=0.786;entryDx=0;entryDy=0;entryPerimeter=0;" parent="WIyWlLk6GJQsqaUBKTNV-1" target="YZgRuGpeGjwWdAe7pd5f-18" edge="1">
          <mxGeometry width="50" height="50" relative="1" as="geometry">
            <mxPoint x="200" y="280" as="sourcePoint" />
            <mxPoint x="360" y="380" as="targetPoint" />
            <Array as="points">
              <mxPoint x="360" y="280" />
              <mxPoint x="360" y="310" />
            </Array>
          </mxGeometry>
        </mxCell>
        <mxCell id="YZgRuGpeGjwWdAe7pd5f-28" value="Loader:&lt;br&gt;Verify all&amp;nbsp;&lt;br&gt;dependencies&lt;br&gt;Verify all&lt;br&gt;properties&lt;br&gt;etc." style="rhombus;whiteSpace=wrap;html=1;" parent="WIyWlLk6GJQsqaUBKTNV-1" vertex="1">
          <mxGeometry x="40" y="330" width="160" height="160" as="geometry" />
        </mxCell>
      </root>
    </mxGraphModel>
  </diagram>
</mxfile>
